<svg width="121" height="120" viewBox="0 0 121 120" fill="none" xmlns="http://www.w3.org/2000/svg">
<mask id="mask0_126_80" style="mask-type:alpha" maskUnits="userSpaceOnUse" x="0" y="0" width="121" height="120">
<rect width="120.822" height="120" fill="#D9D9D9"/>
</mask>
<g mask="url(#mask0_126_80)">
<path d="M35.2398 85H70.4795V75H35.2398V85ZM35.2398 65H85.5822V55H35.2398V65ZM35.2398 45H85.5822V35H35.2398V45ZM25.1713 105C22.4024 105 20.0321 104.021 18.0604 102.063C16.0887 100.104 15.1028 97.75 15.1028 95V25C15.1028 22.25 16.0887 19.8958 18.0604 17.9375C20.0321 15.9792 22.4024 15 25.1713 15H95.6507C98.4196 15 100.79 15.9792 102.762 17.9375C104.733 19.8958 105.719 22.25 105.719 25V95C105.719 97.75 104.733 100.104 102.762 102.063C100.79 104.021 98.4196 105 95.6507 105H25.1713ZM25.1713 95H95.6507V25H25.1713V95Z" fill="#1C1B1F"/>
</g>
</svg>
