<svg width="120" height="120" viewBox="0 0 120 120" fill="none" xmlns="http://www.w3.org/2000/svg">
<mask id="mask0_126_88" style="mask-type:alpha" maskUnits="userSpaceOnUse" x="0" y="0" width="120" height="120">
<rect width="120" height="120" fill="#D9D9D9"/>
</mask>
<g mask="url(#mask0_126_88)">
<path d="M39.5 90L49 44.5L40 48V60H30V41.5L55.25 30.875C56.4167 30.375 57.6458 30.0625 58.9375 29.9375C60.2292 29.8125 61.4583 29.9583 62.625 30.375C63.7917 30.7917 64.8958 31.375 65.9375 32.125C66.9792 32.875 67.8333 33.8333 68.5 35L73.5 43C75.8333 46.75 78.8958 49.6875 82.6875 51.8125C86.4792 53.9375 90.5833 55 95 55V65C89.1667 65 83.9375 63.8333 79.3125 61.5C74.6875 59.1667 70.75 56.1667 67.5 52.5L64.5 60L75 70V90H65V74.75L55.25 65.75L50 90H39.5ZM67.5 27.5C64.75 27.5 62.3958 26.5208 60.4375 24.5625C58.4792 22.6042 57.5 20.25 57.5 17.5C57.5 14.75 58.4792 12.3958 60.4375 10.4375C62.3958 8.47917 64.75 7.5 67.5 7.5C70.25 7.5 72.6042 8.47917 74.5625 10.4375C76.5208 12.3958 77.5 14.75 77.5 17.5C77.5 20.25 76.5208 22.6042 74.5625 24.5625C72.6042 26.5208 70.25 27.5 67.5 27.5ZM60 110C53.0833 110 46.5833 108.688 40.5 106.062C34.4167 103.438 29.125 99.875 24.625 95.375C20.125 90.875 16.5625 85.5833 13.9375 79.5C11.3125 73.4167 10 66.9167 10 60C10 50.0833 12.5625 41.1667 17.6875 33.25C22.8125 25.3333 29.5 19.3333 37.75 15.25L42.25 24.125C35.6667 27.375 30.3125 32.1875 26.1875 38.5625C22.0625 44.9375 20 52.0833 20 60C20 71.1667 23.875 80.625 31.625 88.375C39.375 96.125 48.8333 100 60 100C71.1667 100 80.625 96.125 88.375 88.375C96.125 80.625 100 71.1667 100 60H110C110 66.9167 108.688 73.4167 106.062 79.5C103.438 85.5833 99.875 90.875 95.375 95.375C90.875 99.875 85.5833 103.438 79.5 106.062C73.4167 108.688 66.9167 110 60 110Z" fill="#1C1B1F"/>
</g>
</svg>
