<svg width="110" height="106" viewBox="0 0 110 106" fill="none" xmlns="http://www.w3.org/2000/svg">
<mask id="mask0_151_1468" style="mask-type:alpha" maskUnits="userSpaceOnUse" x="0" y="0" width="110" height="106">
<rect width="110" height="106" fill="#D9D9D9"/>
</mask>
<g mask="url(#mask0_151_1468)">
<path d="M54.7668 103.75C47.6195 103.75 40.9029 102.438 34.6168 99.8125C28.3307 97.1875 22.8626 93.6042 18.2126 89.0625C13.5626 84.5208 9.88135 79.2083 7.16885 73.125C4.45635 67.0417 3.1001 60.5833 3.1001 53.75C3.1001 40.6667 7.57788 29.4167 16.5334 20C25.489 10.5833 36.5112 5.25 49.6001 4V19C40.7307 20.1667 33.3466 24.0208 27.448 30.5625C21.5494 37.1042 18.6001 44.8333 18.6001 53.75C18.6001 63.4167 22.1307 71.6667 29.1918 78.5C36.2529 85.3333 44.7779 88.75 54.7668 88.75C60.4501 88.75 65.7675 87.5833 70.7189 85.25C75.6702 82.9167 79.8251 79.75 83.1834 75.75L96.6168 83.25C91.9668 89.5 85.982 94.4792 78.6626 98.1875C71.3432 101.896 63.3779 103.75 54.7668 103.75ZM49.6001 73.75V58.75H34.1001V48.75H49.6001V33.75H59.9334V48.75H75.4334V58.75H59.9334V73.75H49.6001ZM102.042 74L88.6084 66.5C89.3834 64.5 89.9647 62.4375 90.3522 60.3125C90.7397 58.1875 90.9334 56 90.9334 53.75C90.9334 44.8333 87.9841 37.1042 82.0855 30.5625C76.1869 24.0208 68.8029 20.1667 59.9334 19V4C73.0223 5.25 84.0445 10.5833 93.0001 20C101.956 29.4167 106.433 40.6667 106.433 53.75C106.433 57.4167 106.089 60.9583 105.4 64.375C104.711 67.7917 103.592 71 102.042 74Z" fill="#1C1B1F"/>
</g>
</svg>
