<svg width="149" height="120" viewBox="0 0 149 120" fill="none" xmlns="http://www.w3.org/2000/svg">
<mask id="mask0_151_1465" style="mask-type:alpha" maskUnits="userSpaceOnUse" x="0" y="0" width="149" height="120">
<rect width="148.615" height="120" fill="#D9D9D9"/>
</mask>
<g mask="url(#mask0_151_1465)">
<path d="M43.346 90H49.5383V82.5H99.0767V90H105.269V70C105.269 67.25 104.056 64.8958 101.631 62.9375C99.2057 60.9792 96.2902 60 92.8844 60H71.2114V77.5H49.5383V55H43.346V90ZM60.3748 75C62.5421 75 64.374 74.3958 65.8705 73.1875C67.367 71.9792 68.1152 70.5 68.1152 68.75C68.1152 67 67.367 65.5208 65.8705 64.3125C64.374 63.1042 62.5421 62.5 60.3748 62.5C58.2075 62.5 56.3756 63.1042 54.8791 64.3125C53.3827 65.5208 52.6344 67 52.6344 68.75C52.6344 70.5 53.3827 71.9792 54.8791 73.1875C56.3756 74.3958 58.2075 75 60.3748 75ZM24.769 105V45L74.3075 15L123.846 45V105H24.769ZM37.1537 95H111.461V50L74.3075 27.5L37.1537 50V95Z" fill="#1C1B1F"/>
</g>
</svg>
