<svg width="665" height="181" viewBox="0 0 665 181" fill="none" xmlns="http://www.w3.org/2000/svg">
<path d="M41.1967 22.37C40.9411 19.7919 39.8438 17.7891 37.9048 16.3615C35.9659 14.9339 33.3345 14.2202 30.0107 14.2202C27.7521 14.2202 25.8452 14.5398 24.2898 15.179C22.7344 15.7969 21.5412 16.6598 20.7102 17.7678C19.9006 18.8757 19.4957 20.1328 19.4957 21.5391C19.4531 22.7109 19.6982 23.7337 20.2308 24.6072C20.7848 25.4808 21.5412 26.2372 22.5 26.8764C23.4588 27.4943 24.5668 28.0376 25.8239 28.5064C27.081 28.9538 28.4233 29.3374 29.8509 29.657L35.7315 31.0632C38.5866 31.7024 41.2074 32.5547 43.5938 33.62C45.9801 34.6854 48.0469 35.9957 49.794 37.5511C51.5412 39.1065 52.8942 40.9389 53.853 43.0483C54.8331 45.1577 55.3338 47.576 55.3551 50.3033C55.3338 54.3089 54.3111 57.782 52.2869 60.7223C50.2841 63.6413 47.3864 65.9105 43.5938 67.5298C39.8224 69.1278 35.2734 69.9268 29.9467 69.9268C24.6626 69.9268 20.0604 69.1172 16.1399 67.4979C12.2408 65.8786 9.19389 63.4815 6.99929 60.3068C4.82599 57.1108 3.68608 53.1584 3.57955 48.4496H16.9709C17.12 50.6442 17.7486 52.4766 18.8565 53.9467C19.9858 55.3956 21.4879 56.4929 23.3629 57.2386C25.2592 57.9631 27.4006 58.3253 29.7869 58.3253C32.1307 58.3253 34.1655 57.9844 35.8913 57.3026C37.6385 56.6207 38.9915 55.6726 39.9503 54.4581C40.9091 53.2436 41.3885 51.848 41.3885 50.2713C41.3885 48.8011 40.9517 47.5653 40.0781 46.5639C39.2259 45.5625 37.9688 44.7102 36.3068 44.0071C34.6662 43.304 32.6527 42.6648 30.2663 42.0895L23.1392 40.2997C17.6207 38.9574 13.2635 36.8587 10.0675 34.0036C6.87145 31.1484 5.28409 27.3026 5.3054 22.4659C5.28409 18.5028 6.33878 15.0405 8.46946 12.0788C10.6214 9.11719 13.5724 6.8054 17.3224 5.14346C21.0724 3.48153 25.3338 2.65057 30.1065 2.65057C34.9645 2.65057 39.2045 3.48153 42.8267 5.14346C46.4702 6.8054 49.304 9.11719 51.3281 12.0788C53.3523 15.0405 54.3963 18.4709 54.4602 22.37H41.1967ZM64.6635 69V3.54545H108.769V14.9553H78.5023V30.5518H106.499V41.9616H78.5023V57.5902H108.896V69H64.6635ZM119.771 69V3.54545H133.61V30.5518H161.703V3.54545H175.51V69H161.703V41.9616H133.61V69H119.771ZM198.201 69H183.372L205.968 3.54545H223.801L246.365 69H231.536L215.14 18.5028H214.629L198.201 69ZM197.275 43.272H232.303V54.0746H197.275V43.272ZM243.753 14.9553V3.54545H297.51V14.9553H277.471V69H263.792V14.9553H243.753ZM41.1967 131.37C40.9411 128.792 39.8438 126.789 37.9048 125.362C35.9659 123.934 33.3345 123.22 30.0107 123.22C27.7521 123.22 25.8452 123.54 24.2898 124.179C22.7344 124.797 21.5412 125.66 20.7102 126.768C19.9006 127.876 19.4957 129.133 19.4957 130.539C19.4531 131.711 19.6982 132.734 20.2308 133.607C20.7848 134.481 21.5412 135.237 22.5 135.876C23.4588 136.494 24.5668 137.038 25.8239 137.506C27.081 137.954 28.4233 138.337 29.8509 138.657L35.7315 140.063C38.5866 140.702 41.2074 141.555 43.5938 142.62C45.9801 143.685 48.0469 144.996 49.794 146.551C51.5412 148.107 52.8942 149.939 53.853 152.048C54.8331 154.158 55.3338 156.576 55.3551 159.303C55.3338 163.309 54.3111 166.782 52.2869 169.722C50.2841 172.641 47.3864 174.911 43.5938 176.53C39.8224 178.128 35.2734 178.927 29.9467 178.927C24.6626 178.927 20.0604 178.117 16.1399 176.498C12.2408 174.879 9.19389 172.482 6.99929 169.307C4.82599 166.111 3.68608 162.158 3.57955 157.45H16.9709C17.12 159.644 17.7486 161.477 18.8565 162.947C19.9858 164.396 21.4879 165.493 23.3629 166.239C25.2592 166.963 27.4006 167.325 29.7869 167.325C32.1307 167.325 34.1655 166.984 35.8913 166.303C37.6385 165.621 38.9915 164.673 39.9503 163.458C40.9091 162.244 41.3885 160.848 41.3885 159.271C41.3885 157.801 40.9517 156.565 40.0781 155.564C39.2259 154.562 37.9688 153.71 36.3068 153.007C34.6662 152.304 32.6527 151.665 30.2663 151.089L23.1392 149.3C17.6207 147.957 13.2635 145.859 10.0675 143.004C6.87145 140.148 5.28409 136.303 5.3054 131.466C5.28409 127.503 6.33878 124.04 8.46946 121.079C10.6214 118.117 13.5724 115.805 17.3224 114.143C21.0724 112.482 25.3338 111.651 30.1065 111.651C34.9645 111.651 39.2045 112.482 42.8267 114.143C46.4702 115.805 49.304 118.117 51.3281 121.079C53.3523 124.04 54.3963 127.471 54.4602 131.37H41.1967ZM74.4513 178H59.6218L82.2177 112.545H100.051L122.615 178H107.786L91.3903 127.503H90.8789L74.4513 178ZM73.5245 152.272H108.553V163.075H73.5245V152.272ZM141.776 178H126.946L149.542 112.545H167.376L189.94 178H175.11L158.714 127.503H158.203L141.776 178ZM140.849 152.272H175.877V163.075H140.849V152.272ZM187.327 123.955V112.545H241.084V123.955H221.045V178H207.366V123.955H187.327ZM249.937 178V112.545H263.776V139.552H291.869V112.545H305.676V178H291.869V150.962H263.776V178H249.937ZM330.924 112.545V178H317.085V112.545H330.924Z" fill="white"/>
<line y1="-1.5" x2="290.002" y2="-1.5" transform="matrix(0.999999 0.00138455 -0.00153291 0.999999 0 90.2857)" stroke="white" stroke-width="3"/>
<path d="M291 89.8105L295.5 70.3278L299 101.215L305 74.6045L309.5 95.5128L314.5 78.406C314.5 78.406 318.157 85.3568 320.5 89.8105" stroke="white" stroke-width="3"/>
<path d="M290.393 90.2284C290.353 90.2495 290.323 90.2615 290.288 90.2678C290.262 90.2725 290.234 90.2741 290.197 90.2741C290.133 90.2741 290.239 90.2606 290.342 90.2395C290.412 90.2025 290.481 90.1632 290.551 90.1254C290.604 90.0966 290.673 90.0348 290.747 89.9716C290.853 89.8792 290.968 89.7838 291.049 89.7838C291.172 89.7838 291.051 89.9307 291.012 89.9546C290.973 89.9786 290.932 90.0016 290.89 90.0237C290.856 90.0479 290.821 90.0673 290.783 90.0842C290.706 90.1422 290.624 90.1946 290.554 90.2245C290.478 90.2563 290.144 90.3374 290.249 90.2961C290.384 90.2436 290.526 90.1899 290.665 90.13C290.601 90.1523 290.537 90.1735 290.475 90.2025C290.456 90.2117 290.426 90.2204 290.393 90.2284Z" fill="white"/>
<path d="M290.371 90.0758C290.371 89.971 290.519 89.8904 290.632 89.938C290.84 90.0261 290.889 89.9341 291.049 89.8389C291.266 89.7103 290.622 90.1042 290.4 90.2245C290.327 90.2644 290.286 90.2741 290.197 90.2741C290.101 90.2741 290.39 90.2433 290.475 90.2025C290.634 90.1271 290.817 90.1051 290.945 89.9766C291.045 89.8761 291.131 89.7859 290.974 89.927C290.859 90.0303 290.688 90.1679 290.554 90.2245C290.478 90.2563 290.144 90.3374 290.249 90.2961C290.501 90.1976 290.783 90.095 291.012 89.9546C291.051 89.9307 291.172 89.7838 291.049 89.7838C290.912 89.7838 290.681 90.0545 290.551 90.1254C290.392 90.2116 290.236 90.3054 290.07 90.3623C290.011 90.3823 289.752 90.4935 289.745 90.3733C289.738 90.2566 289.7 90.3279 289.652 90.2631C289.6 90.1925 289.797 90.0689 289.849 90.051C289.991 90.0029 290.161 89.7782 290.293 89.7782C290.425 89.7782 290.61 89.7191 290.736 89.6791" stroke="white" stroke-linecap="square"/>
<line x1="321" y1="87.8353" x2="351" y2="87.8353" stroke="white" stroke-width="3"/>
<mask id="mask0_151_1412" style="mask-type:alpha" maskUnits="userSpaceOnUse" x="340" y="69" width="24" height="24">
<rect x="340" y="69.3774" width="24" height="22.809" fill="#D9D9D9"/>
</mask>
<g mask="url(#mask0_151_1412)">
<path d="M351.975 90.4283L349.95 88.6939C348.2 87.2049 346.754 85.914 345.613 84.8211C344.471 83.7282 343.571 82.7461 342.913 81.8749C342.254 81.0037 341.792 80.1959 341.525 79.4515C341.258 78.707 341.125 77.9309 341.125 77.123C341.125 75.3972 341.731 73.956 342.943 72.7994C344.156 71.6427 345.666 71.0644 347.475 71.0644C348.324 71.0644 349.132 71.2069 349.899 71.4921C350.666 71.7772 351.358 72.1969 351.975 72.7513C352.592 72.1969 353.284 71.7772 354.051 71.4921C354.818 71.2069 355.626 71.0644 356.475 71.0644C358.298 71.0644 359.82 71.6427 361.042 72.7994C362.264 73.956 362.875 75.3972 362.875 77.123C362.875 77.915 362.746 78.6832 362.488 79.4277C362.229 80.1722 361.767 80.976 361.1 81.8393C360.433 82.7025 359.525 83.6846 358.375 84.7854C357.225 85.8863 355.767 87.1891 354 88.6939L351.975 90.4283ZM351.975 86.413C353.542 85.0508 354.829 83.9024 355.838 82.9679C356.846 82.0333 357.637 81.2176 358.212 80.5206C358.787 79.8237 359.183 79.2127 359.4 78.6876C359.617 78.1626 359.725 77.6413 359.725 77.1236C359.725 76.2362 359.417 75.5034 358.8 74.9253C358.183 74.3471 357.412 74.0581 356.487 74.0581C355.762 74.0581 355.083 74.268 354.45 74.6877C353.817 75.1074 353.375 75.642 353.125 76.2915H350.85C350.608 75.642 350.164 75.1074 349.518 74.6877C348.873 74.268 348.194 74.0581 347.482 74.0581C346.573 74.0581 345.815 74.3471 345.209 74.9253C344.603 75.5034 344.3 76.236 344.3 77.123C344.3 77.6577 344.412 78.1962 344.636 78.7386C344.86 79.2809 345.26 79.8996 345.836 80.5947C346.412 81.2898 347.196 82.1006 348.188 83.0273C349.179 83.9539 350.442 85.0824 351.975 86.413Z" fill="white"/>
</g>
<path d="M349 88.8601H379" stroke="white" stroke-width="3"/>
</svg>
